<svg width="40" height="41" viewBox="0 0 40 41" fill="none" xmlns="http://www.w3.org/2000/svg">
<g filter="url(#filter0_d)">
<g clip-path="url(#clip0)">
<rect x="4" y="0.5" width="32" height="32" rx="2.5" fill="#A15F5F"/>
<rect x="4" y="0.5" width="32" height="32" fill="#101B4F"/>
<path d="M21.4215 17.9969C22.1983 19.6266 23.0994 20.8534 24.1248 21.6773C25.1657 22.483 26.3387 22.8858 27.6438 22.8858C29.2129 22.8858 30.4947 22.2724 31.489 21.0456C32.4833 19.8005 32.9805 18.2167 32.9805 16.294C32.9805 14.4447 32.5222 12.9066 31.6055 11.6798C30.6889 10.453 29.5392 9.83957 28.1565 9.83955C26.898 9.83957 25.7561 10.453 24.7308 11.6798C23.7209 12.8883 22.6178 14.994 21.4215 17.9969ZM18.5784 15.0581C17.8171 13.4468 16.916 12.2383 15.8751 11.4326C14.8497 10.6269 13.6767 10.2241 12.3561 10.2241C10.787 10.2241 9.50522 10.8375 8.5109 12.0643C7.51658 13.2728 7.01942 14.8384 7.01942 16.7609C7.01942 18.6103 7.47774 20.1484 8.39438 21.3752C9.31101 22.602 10.4607 23.2154 11.8434 23.2154C13.1019 23.2154 14.236 22.6112 15.2459 21.4027C16.2712 20.1942 17.3821 18.0793 18.5784 15.0581ZM20.233 20.0843C19.1299 22.5746 17.9725 24.3965 16.7607 25.55C15.5643 26.7036 14.2282 27.2804 12.7523 27.2804C10.6549 27.2804 8.876 26.255 7.4156 24.2042C5.97072 22.1534 5.24829 19.6174 5.24829 16.5962C5.24829 13.3918 5.89304 10.8009 7.18256 8.82331C8.48759 6.84579 10.181 5.85702 12.2629 5.85699C13.7388 5.85702 15.0594 6.42465 16.2247 7.55988C17.3899 8.67685 18.5551 10.5262 19.7203 13.108C20.7768 10.5811 21.9187 8.72263 23.1461 7.53241C24.3734 6.32394 25.7406 5.71969 27.2476 5.71967C29.3139 5.71969 31.0773 6.75424 32.5377 8.82331C34.0136 10.8924 34.7516 13.4468 34.7516 16.4863C34.7516 19.6723 34.0991 22.2541 32.7941 24.2317C31.5045 26.1909 29.8188 27.1705 27.737 27.1705C26.2611 27.1705 24.9482 26.6395 23.7986 25.5775C22.6644 24.4972 21.4759 22.6661 20.233 20.0843Z" fill="white"/>
</g>
</g>
<defs>
<filter id="filter0_d" x="0" y="0.5" width="40" height="40" filterUnits="userSpaceOnUse" color-interpolation-filters="sRGB">
<feFlood flood-opacity="0" result="BackgroundImageFix"/>
<feColorMatrix in="SourceAlpha" type="matrix" values="0 0 0 0 0 0 0 0 0 0 0 0 0 0 0 0 0 0 127 0"/>
<feOffset dy="4"/>
<feGaussianBlur stdDeviation="2"/>
<feColorMatrix type="matrix" values="0 0 0 0 0 0 0 0 0 0 0 0 0 0 0 0 0 0 0.25 0"/>
<feBlend mode="normal" in2="BackgroundImageFix" result="effect1_dropShadow"/>
<feBlend mode="normal" in="SourceGraphic" in2="effect1_dropShadow" result="shape"/>
</filter>
<clipPath id="clip0">
<rect x="4" y="0.5" width="32" height="32" rx="2.5" fill="white"/>
</clipPath>
</defs>
</svg>
